HIERARCHY
ROOT Hips
{
	OFFSET -14.64140 90.27770 -84.91600
	CHANNELS 6 Xposition Yposition Zposition Zrotation Xrotation Yrotation
	JOINT Spine
	{
		OFFSET 0.00000 13.20850 -1.60436
		CHANNELS 3 Zrotation Xrotation Yrotation
		JOINT Spine1
		{
			OFFSET 0.00000 8.61716 0.00000
			CHANNELS 3 Zrotation Xrotation Yrotation
			JOINT Spine2
			{
				OFFSET 0.00000 8.61717 0.00000
				CHANNELS 3 Zrotation Xrotation Yrotation
				JOINT Spine3
				{
					OFFSET 0.00000 8.61717 0.00000
					CHANNELS 3 Zrotation Xrotation Yrotation
					JOINT Neck
					{
						OFFSET 0.00000 11.07920 1.10792
						CHANNELS 3 Zrotation Xrotation Yrotation
						JOINT Neck1
						{
							OFFSET 0.00000 7.08032 0.00000
							CHANNELS 3 Zrotation Xrotation Yrotation
							JOINT Head
							{
								OFFSET 0.00000 7.08031 0.00000
								CHANNELS 3 Zrotation Xrotation Yrotation
								End site
								{
									OFFSET 0.00000 0.00000 0.00000
								}
							}
						}
					}
					JOINT RightShoulder
					{
						OFFSET -0.01000 7.91373 5.19711
						CHANNELS 3 Zrotation Xrotation Yrotation
						JOINT RightArm
						{
							OFFSET -18.41580 0.00000 0.00000
							CHANNELS 3 Zrotation Xrotation Yrotation
							JOINT RightForeArm
							{
								OFFSET -29.11090 0.00000 0.00000
								CHANNELS 3 Zrotation Xrotation Yrotation
								JOINT RightHand
								{
									OFFSET -24.65040 0.00000 0.00000
									CHANNELS 3 Zrotation Xrotation Yrotation
									JOINT RightHandThumb1
									{
										OFFSET -5.35114 -0.85590 3.97906
										CHANNELS 3 Zrotation Xrotation Yrotation
										JOINT RightHandThumb2
										{
											OFFSET -4.52789 0.00000 0.00000
											CHANNELS 3 Zrotation Xrotation Yrotation
											JOINT RightHandThumb3
											{
												OFFSET -2.46976 0.00000 0.00000
												CHANNELS 3 Zrotation Xrotation Yrotation
												End site
												{
													OFFSET 0.00000 0.00000 0.00000
												}
											}
										}
									}
									JOINT RightHandIndex1
									{
										OFFSET -14.26970 0.00000 2.88139
										CHANNELS 3 Zrotation Xrotation Yrotation
										JOINT RightHandIndex2
										{
											OFFSET -5.48836 0.00000 0.00000
											CHANNELS 3 Zrotation Xrotation Yrotation
											JOINT RightHandIndex3
											{
												OFFSET -3.01859 0.00000 0.00000
												CHANNELS 3 Zrotation Xrotation Yrotation
												End site
												{
													OFFSET 0.00000 0.00000 0.00000
												}
											}
										}
									}
									JOINT RightHandMiddle1
									{
										OFFSET -14.26970 0.00000 -0.09147
										CHANNELS 3 Zrotation Xrotation Yrotation
										JOINT RightHandMiddle2
										{
											OFFSET -6.17441 0.00000 0.00000
											CHANNELS 3 Zrotation Xrotation Yrotation
											JOINT RightHandMiddle3
											{
												OFFSET -3.56743 0.00000 0.00000
												CHANNELS 3 Zrotation Xrotation Yrotation
												End site
												{
													OFFSET 0.00000 0.00000 0.00000
												}
											}
										}
									}
									JOINT RightHandRing1
									{
										OFFSET -12.69180 0.00000 -3.06433
										CHANNELS 3 Zrotation Xrotation Yrotation
										JOINT RightHandRing2
										{
											OFFSET -5.62556 0.00000 0.00000
											CHANNELS 3 Zrotation Xrotation Yrotation
											JOINT RightHandRing3
											{
												OFFSET -3.56744 0.00000 0.00000
												CHANNELS 3 Zrotation Xrotation Yrotation
												End site
												{
													OFFSET 0.00000 0.00000 0.00000
												}
											}
										}
									}
									JOINT RightHandPinky1
									{
										OFFSET -11.11390 0.00000 -6.03719
										CHANNELS 3 Zrotation Xrotation Yrotation
										JOINT RightHandPinky2
										{
											OFFSET -4.52789 0.00000 0.00000
											CHANNELS 3 Zrotation Xrotation Yrotation
											JOINT RightHandPinky3
											{
												OFFSET -2.46976 0.00000 0.00000
												CHANNELS 3 Zrotation Xrotation Yrotation
												End site
												{
													OFFSET 0.00000 0.00000 0.00000
												}
											}
										}
									}
								}
							}
						}
					}
					JOINT LeftShoulder
					{
						OFFSET 0.01000 7.91373 5.19711
						CHANNELS 3 Zrotation Xrotation Yrotation
						JOINT LeftArm
						{
							OFFSET 18.41580 0.00000 0.00000
							CHANNELS 3 Zrotation Xrotation Yrotation
							JOINT LeftForeArm
							{
								OFFSET 29.11090 0.00000 0.00000
								CHANNELS 3 Zrotation Xrotation Yrotation
								JOINT LeftHand
								{
									OFFSET 24.65040 0.00000 0.00000
									CHANNELS 3 Zrotation Xrotation Yrotation
									JOINT LeftHandThumb1
									{
										OFFSET 5.35114 -0.85590 3.97906
										CHANNELS 3 Zrotation Xrotation Yrotation
										JOINT LeftHandThumb2
										{
											OFFSET 4.52789 0.00000 0.00000
											CHANNELS 3 Zrotation Xrotation Yrotation
											JOINT LeftHandThumb3
											{
												OFFSET 2.46977 0.00000 0.00000
												CHANNELS 3 Zrotation Xrotation Yrotation
												End site
												{
													OFFSET 0.00000 0.00000 0.00000
												}
											}
										}
									}
									JOINT LeftHandIndex1
									{
										OFFSET 14.26970 0.00000 2.88139
										CHANNELS 3 Zrotation Xrotation Yrotation
										JOINT LeftHandIndex2
										{
											OFFSET 5.48836 0.00000 0.00000
											CHANNELS 3 Zrotation Xrotation Yrotation
											JOINT LeftHandIndex3
											{
												OFFSET 3.01859 0.00000 0.00000
												CHANNELS 3 Zrotation Xrotation Yrotation
												End site
												{
													OFFSET 0.00000 0.00000 0.00000
												}
											}
										}
									}
									JOINT LeftHandMiddle1
									{
										OFFSET 14.26970 0.00000 -0.09147
										CHANNELS 3 Zrotation Xrotation Yrotation
										JOINT LeftHandMiddle2
										{
											OFFSET 6.17440 0.00000 0.00000
											CHANNELS 3 Zrotation Xrotation Yrotation
											JOINT LeftHandMiddle3
											{
												OFFSET 3.56744 0.00000 0.00000
												CHANNELS 3 Zrotation Xrotation Yrotation
												End site
												{
													OFFSET 0.00000 0.00000 0.00000
												}
											}
										}
									}
									JOINT LeftHandRing1
									{
										OFFSET 12.69180 0.00000 -3.06433
										CHANNELS 3 Zrotation Xrotation Yrotation
										JOINT LeftHandRing2
										{
											OFFSET 5.62556 0.00000 0.00000
											CHANNELS 3 Zrotation Xrotation Yrotation
											JOINT LeftHandRing3
											{
												OFFSET 3.56744 0.00000 0.00000
												CHANNELS 3 Zrotation Xrotation Yrotation
												End site
												{
													OFFSET 0.00000 0.00000 0.00000
												}
											}
										}
									}
									JOINT LeftHandPinky1
									{
										OFFSET 11.11390 0.00000 -6.03719
										CHANNELS 3 Zrotation Xrotation Yrotation
										JOINT LeftHandPinky2
										{
											OFFSET 4.52789 0.00000 0.00000
											CHANNELS 3 Zrotation Xrotation Yrotation
											JOINT LeftHandPinky3
											{
												OFFSET 2.46976 0.00000 0.00000
												CHANNELS 3 Zrotation Xrotation Yrotation
												End site
												{
													OFFSET 0.00000 0.00000 0.00000
												}
											}
										}
									}
								}
							}
						}
					}
					JOINT pCube4
					{
						OFFSET 0.00000 10.91090 1.10792
						CHANNELS 3 Zrotation Xrotation Yrotation
						End site
						{
							OFFSET 0.00000 0.00000 0.00000
						}
					}
				}
			}
		}
	}
	JOINT RightUpLeg
	{
		OFFSET -9.98441 0.00000 0.00000
		CHANNELS 3 Zrotation Xrotation Yrotation
		JOINT RightLeg
		{
			OFFSET 0.00000 -42.11790 0.00000
			CHANNELS 3 Zrotation Xrotation Yrotation
			JOINT RightFoot
			{
				OFFSET 0.00000 -45.00020 -0.00001
				CHANNELS 3 Zrotation Xrotation Yrotation
				JOINT RightForeFoot
				{
					OFFSET 0.00000 -3.74820 0.00000
					CHANNELS 3 Zrotation Xrotation Yrotation
					JOINT RightToeBase
					{
						OFFSET 0.00000 0.06325 14.43120
						CHANNELS 3 Zrotation Xrotation Yrotation
						End site
						{
							OFFSET 0.00000 0.00000 0.00000
						}
					}
				}
			}
		}
	}
	JOINT LeftUpLeg
	{
		OFFSET 9.98441 0.00000 0.00000
		CHANNELS 3 Zrotation Xrotation Yrotation
		JOINT LeftLeg
		{
			OFFSET 0.00000 -42.11800 0.00000
			CHANNELS 3 Zrotation Xrotation Yrotation
			JOINT LeftFoot
			{
				OFFSET 0.00000 -45.00070 0.00000
				CHANNELS 3 Zrotation Xrotation Yrotation
				JOINT LeftForeFoot
				{
					OFFSET 0.00000 -3.74824 0.00000
					CHANNELS 3 Zrotation Xrotation Yrotation
					JOINT LeftToeBase
					{
						OFFSET 0.00000 0.06325 14.43110
						CHANNELS 3 Zrotation Xrotation Yrotation
						End site
						{
							OFFSET 0.00000 0.00000 0.00000
						}
					}
				}
			}
		}
	}
}
MOTION
Frames: 4
Frame Time: 0.050000
-0.002233388856406127 0.03306161397396923 0.01956200611807443 -0.025077159312060185 0.037573178942300986 0.004764265833070616 -2.1679032389700703 3.8980581984195957 -1.0606326188121968 -0.8810106353506709 3.794555883496766 0.38749433984836107 -0.9421423478641974 -0.39142686958524087 -1.025459613739985 0.6725882005941838 0.4011239348399739 -0.8450721390377732 -0.18058310968492447 11.005907693390458 -1.030615869025788 -0.02485840316353118 -0.9837155274299854 -3.567820495140198 0.39282473283967173 -15.796242238149278 -0.28094978852267216 0.27172192540229734 0.5534156074199192 -14.931985932096753 66.07804302923049 1.2755561452596014 9.011344448402301 30.753147703985142 -1.8760045405804726 93.8255489632759 13.605276128268686 -0.2553381331790333 -4.448554881734297 4.51309513658455 -0.13116652387027172 -1.6103252500441976 -0.014604084948501402 -0.02141746405774626 -56.18888729163591 0.0451841357257497 0.028704941482019075 -56.235417247039834 -38.74099521187714 0.01704925380435486 0.048583581150047156 0.03031846099995232 -0.015221469152014167 -0.006966184043079762 -0.0014624764212798828 -0.015067892151366325 0.030107001653746513 -36.69595706523481 -0.019714569064347518 -0.036402182465347134 -0.004265185598477187 -0.03183635440088681 0.022954359634194534 0.01107557846868363 -0.0022251413140946066 0.0049756065086161184 -19.724114322524024 0.016387843005092547 -0.02668106613307408 0.0006607060490399332 -0.03886161876017493 0.014836696844843148 -0.033962131811849455 -0.03046275097062262 -0.02429939209740938 24.03433222029193 0.044622067968592194 0.03771494247281227 28.87723735673344 -0.033741676175702576 -0.03550198227325818 28.870110142533825 -0.013159098018886145 -0.001327399081003897 1.0499752450418935 0.6883447503277328 12.807144154379491 -61.75054648967191 26.78019085064559 -17.13971403884985 -6.3588238544717575 6.7807493483985315 -75.95986812832996 -13.18513454916105 3.7859252881565473 -1.7465268869320458 -0.4293037623105224 0.04992325823106414 -8.149716730686034 -0.00898738701653683 -0.007105535119023448 44.5318714880552 0.026054049988547125 -0.031461180713112324 44.61473194938566 12.479602683957703 -0.03710128738347591 -0.01389000295595805 -0.025216843193457954 0.01784302879136191 -0.006030420433204867 -0.011341519535220218 -0.013979962262509072 -0.005026846705747122 11.119128709825093 0.021687970830822894 -0.029695274364660566 0.010276896608471729 0.017232397072316902 0.0090835452584315 -0.03396436853749074 0.015410689661247685 0.03585627629515363 4.739830204714308 0.004113008876082872 0.03183034871285695 -0.04162509016956339 0.007187825459577006 -0.013066319567016772 0.00025887308809386956 0.008660148426087515 0.018858021404517023 -5.627193862533162 -0.015084684636877706 0.01154594465673035 -6.70677708777482 0.015101356131646405 0.012595880541125445 -6.762863730975173 -0.011566380892976612 -0.021029432262335338 0.03714867526469686 0.046102404095838066 -0.04013879840361722 8.080924423058644 3.5388248949409435 -19.244838268895606 -0.03687330629223067 10.388179688380417 0.006446904597109529 -5.600538062030677 -15.699258378656369 3.180670093624146 0.00044653719338490097 -0.0011718661759337352 -0.033670825492596194 -0.04381468481453495 4.720338870509915 -0.007080572486985217 12.442774500101292 -8.26774128262574 6.874576452475815 -0.004472410959884037 46.427512016868455 -0.04755060318409387 -4.311961184989306 -14.751564911325268 -3.839553461688538 -0.0017086631301260326 0.00852272332919687 -0.0432576197043019 -0.027634080431948482 -10.71802748765998 0.039562042240981234 
-0.019021674616841816 0.04099213308798877 0.04024106155222451 0.0021812087516136455 0.036855693989561684 0.008364112354600495 -2.1196531849961167 4.0286518766201045 -1.046110728576203 -0.951072451185903 3.7874625186342423 0.37952551322660283 -0.9071855947046173 -0.32328607970139955 -0.9808678908790469 0.5935673625711527 0.3297124965755028 -0.8599897798263686 -0.2988131224411803 11.034527856618705 -0.8243283479407555 -0.02076537745210995 -0.942877461145383 -3.4099571645118694 0.29872201957380706 -15.787154777123444 -0.29144945958054763 0.4685197079603844 0.5073106616878631 -14.60103262498378 65.53504887588066 3.491877195735366 10.878249007482525 31.140135630250615 -2.4156651928318746 92.94937232909716 15.148611855781056 -0.24641245214506985 -4.986986237670509 4.534945254184095 -0.081759572180409 -1.5631084994033408 0.0031697785829134066 0.04930370387377341 -56.2111735847349 -0.019981361513786957 -0.04769924483939542 -56.254416071129405 -38.73152948691615 0.03565322527286442 0.026679183554975887 -0.03504738040926283 0.003416406118849054 -0.006020095316263334 -0.010203750242233967 0.015765702817988565 -0.002968874271414752 -36.65842715109071 -0.004925081466984171 -0.002250052860024601 0.02277277814417614 0.026977517222781997 -0.03530994266877715 0.0048008960668504816 0.037645661042908035 -0.03037090269049376 -19.808213066917645 -0.04948325877570278 -0.031508553066134794 -0.048046954830879354 0.04695857947071468 0.022153843794635784 -0.04785301616239307 -0.01904175145053053 0.021950280796668723 24.03083704791838 0.0028530776104080703 -0.03449797384387179 28.87946243578234 7.517994180033037e-05 0.035373645255040026 28.896695758994305 -0.020229641900519096 0.03967517035605709 1.302308631660032 0.7275011466740485 12.741134283985192 -60.60082474779439 26.80502503534385 -19.46332172850514 -4.527772151714175 5.165753659055622 -77.24470586877517 -13.712717397337707 4.335045144164997 -2.3488446446091866 -0.425678090779241 0.09076114051468884 -8.093295806142006 0.0030016948811264054 0.033512812642546096 44.55121595532494 -0.007266859217091733 0.00400443916468187 44.59786726403752 12.434635663993333 -0.040801584709288505 0.014958495746121445 -0.024431382429620396 0.0370961928120053 -0.035210689373086766 -0.022855040258292537 -0.017018641545853305 0.033072274914693875 11.069760164645702 0.005332292526836903 -0.04376384261127895 0.03504756608038091 0.02913131123577812 0.0016692570034012484 0.007283738886382406 0.000726848887087451 -0.0058088829338246275 4.770299471779622 0.029644513619495903 -0.029680037208909323 0.009154258300151862 -0.0444597757677443 -0.005278603956504871 0.023587115721692645 -0.006767133381640972 -0.010914488137854348 -5.609059281677344 0.049361940578892774 -0.00016527960896536183 -6.729336781341467 -0.01951474908470811 0.0023226645749619143 -6.7483237474321625 -0.02067744372993171 0.003211261902136536 0.0038380052940734303 0.032728348664167274 0.04069528802078337 8.081379750930205 3.487093002483835 -19.210745120753362 -0.003116485138797189 10.38203795725415 0.04388807455083127 -5.603845615260384 -15.70316240436537 3.1742379348586924 0.029351315755948133 -0.03979086525022416 0.01728117566262016 0.018628652141910246 4.711696808386959 -0.04650268853464292 12.467834000371203 -8.200873484486099 6.862585651103548 -0.001995202977914774 46.41607754902814 -0.013498566241511628 -4.346980775775227 -14.727280796182983 -3.8174797620039587 0.016114128775664534 0.012336263532630957 0.04516212464687152 -0.036593565364357886 -10.729435446844493 0.024505098427102107 
-0.010350699869417676 -0.048867010263957095 -0.04161571473800136 -0.005347807774132116 -0.009127254716986246 0.04334810503805967 -2.206329343098653 4.127620872636188 -0.9929522423571574 -0.9039506398506875 3.8279489696152376 0.38716635387648657 -0.9035711997336686 -0.3235405745438949 -1.0035343221114568 0.5482016723340802 0.38353972163806827 -0.8297446750807117 -0.3785988871155788 11.000719779833311 -0.7982869985339776 -0.08996406298713161 -1.02183899421639 -3.3710711883910043 0.27695001183204226 -15.788923013786901 -0.3006752610868284 0.7201336678098174 0.3375006531697685 -14.308144365338682 64.82220825942777 4.5826381149532684 12.049072664386015 31.87311095640508 -2.398212983484262 92.56642518388894 16.130969943686303 -0.29157598175658567 -5.525378699909357 4.521941074086614 -0.11435906086544553 -1.5905836984830868 -0.01473303652791865 0.0011965093862656465 -56.26093502449664 0.04913018550980554 -0.024430899688084953 -56.19558089030012 -38.791942824222076 0.01635205426614309 -0.028664081240757533 -0.011808970281533167 0.0033351162011050913 -0.019345611990242997 -0.03088080167990425 -0.015024968342901037 -0.02147761725506546 -36.72045920379112 0.02732079638849687 -0.034967256862451626 0.037490576082806655 -0.032903197453995565 -0.035143424281824084 0.015747133686693914 0.04811557671920671 -0.008781908123636495 -19.808237686776597 0.0150980721475302 0.0311173055219947 -0.0010809881455254831 0.025095643860065114 0.01900446689425285 -0.02144308004229753 0.020540742820004284 -0.033385674703177055 24.02058082477416 0.03642400590769132 -0.019803595535389188 28.904193430424417 -0.00451222065683185 -0.02227111336019736 28.903296563940856 -0.0216058406378826 0.00677899141539736 1.2448004126364565 0.6961773426132353 12.556890827321723 -59.49528606149239 27.19252329305781 -21.287687518209083 -2.6029132677147433 3.9033195424569924 -78.19488801127822 -13.982239885790213 4.678273920215034 -2.802861484492068 -0.48392495251302164 0.08064285463842955 -8.085996368053571 0.03686960847813978 0.03736714994797517 44.54008112486897 -0.011564363799705423 0.01947202297447336 44.55718777990003 12.494694977252312 0.02116635665294786 0.023714799039170686 -0.005336412481581375 -0.009008688697116901 0.01744348493720546 -0.018409883450599476 -0.010872977014402894 -0.0015529362129751657 11.117143615693724 -0.027533179048871557 0.008646796149836052 -0.010319126265269724 0.0006899543249074276 -0.01929559595400554 0.012683384322020888 -0.004723482072089785 0.025066920355262753 4.726392944538187 -0.022502602032660614 -0.01899335502009552 -0.01570807894819281 -0.006133378028200719 -0.010557168205458779 -0.030642302434373454 0.023877058328016836 0.04425918004452646 -5.5949459894804034 -0.030717435092049848 0.03710234190002811 -6.711836869825788 0.004578270067503836 -0.046607893600517945 -6.746218617141729 0.03882952145516292 -0.027265171076866178 -0.04198777499596341 -0.04391094060449534 0.0128099717881644 8.052028098113752 3.493010536288813 -19.24826536955254 -0.0020222446692891504 10.415421633074429 0.02980737313129217 -5.639760524357367 -15.690803369790766 3.2287232921479085 -0.043252085425573975 0.01614255798594396 0.0269214210832808 -0.04619070867793065 4.673510673103091 0.02034116756422117 12.435845293667347 -8.250663764559192 6.921907904498415 0.04565442500027812 46.38067946977471 0.010359777778193966 -4.314470683808142 -14.717425407734293 -3.823306600556077 0.011427862525054398 0.0032401761943458554 0.045717185283818206 -0.047268203563950686 -10.792401068722649 -0.025896509465878584 
-0.029119448876379957 -0.039861936087075514 -0.008984283943834067 0.007094081515593426 -0.005961396349614557 -0.03317669732011779 -2.2453733676886443 4.242627790609003 -0.95730670261031 -0.8951595115141673 3.77325158696794 0.3897792996800958 -0.9233888899761578 -0.23271708595473858 -1.0690547633848702 0.5856086209226562 0.40120875680377754 -0.8810718959949254 -0.3492443017713242 10.95837832581522 -0.8191822759960734 -0.1280299720725216 -1.0158246560055817 -3.43277721102555 0.2406275252180998 -15.789078625879135 -0.21668067808969838 1.0737529002070902 0.2590966916324874 -14.141564869231944 64.07704235558832 5.009275609506964 12.87088365290917 32.78599626202239 -2.0243324054798713 92.42874054740533 16.71381226303613 -0.283440195601335 -6.071952060468946 4.5434808041872685 -0.13636796819578062 -1.556281852344327 -0.016556466474068856 -0.014352307533884872 -56.24383846611229 -0.023478975911772226 -0.026410918981444598 -56.19117145864123 -38.77968499432766 0.023880069141592936 0.036526869724086704 -0.012546027155396784 -0.03068598253751109 0.02813816192077256 -0.03053417908572839 0.011179233682402055 -0.016786162627491448 -36.71652530741475 0.03285168824885399 -0.04392131087230988 0.026306881101348295 0.041728343928090536 -0.0026147721686790777 -0.046453984985986414 0.005473928285043544 0.04038094586238258 -19.75715541899573 0.009409807200361754 0.025162081133780954 0.009347057832419335 0.0036443508135664037 -0.03451652816213563 -0.031046452523826183 0.010859294718668372 -0.006166933654503736 24.06902678069967 0.029520962053296854 -0.023646857194514835 28.90162059744988 0.006253967581760339 -0.017861604278141797 28.88890035061848 0.010931422508233953 0.01794036586867374 0.9968668234875274 0.6510788154122166 12.430567620716355 -58.4118887514871 27.802592509857778 -22.591584710024478 -0.40890516347388106 2.8813083745069012 -78.80482337200031 -13.891877521846748 5.012055093127233 -3.0913331123356484 -0.5003453145080223 0.03892731259476717 -8.115812375138676 -0.025006715829561994 -0.001076834609801675 44.57326247422658 -0.020930373667736465 0.035947085998135536 44.613682106545134 12.499906197714475 0.008475587311331606 0.0011338162797957195 0.031403775777675905 0.019929098779581867 0.013860861821580547 -0.048806817398563754 -0.03860551866502383 -0.034743454851232605 11.08588692092274 -0.0045992782470310025 -0.01187641856923939 -0.023851308071176927 -0.047511860447499395 0.009138904954387796 -0.00918836804524513 0.010028084355140944 0.002114423442608393 4.743183673226523 0.024818345001555914 0.03193459137829239 0.03178552049102286 0.028241522896522837 0.021031880302108938 0.02865310835547419 0.036223009853884214 -0.004623111377489454 -5.628883261685213 -0.006647076623794 -0.016127408965981135 -6.696904666293375 -0.016451664939677157 -0.04202829646742316 -6.742323389243147 0.009283701578376085 -0.01377504840483038 0.04328347839757118 0.04334980315155514 0.045826960351140776 8.055324897549959 3.471661076005226 -19.193010639378617 0.028189893513331503 10.376792830625655 0.006540920661843339 -5.582040038688246 -15.646661759475975 3.236571739688338 -0.013708365637887798 0.014624365150931358 0.025998297276530573 -0.007929297393722003 4.658643635388409 -0.04123982366771616 12.410897164176237 -8.275618911388742 6.870217178877861 0.003856265733500194 46.428423922889785 -0.01614429432253651 -4.305756760222695 -14.7492271218044 -3.811512230325622 -0.025864285997113063 0.0068060565928736196 0.030720831173955437 -0.026959932657586044 -10.701555966013617 0.0008709524727240752 
